<!DOCTYPE svg PUBLIC "-//W3C//DTD SVG 1.1//EN" "http://www.w3.org/Graphics/SVG/1.1/DTD/svg11.dtd">

<!-- Uploaded to: SVG Repo, www.svgrepo.com, Transformed by: SVG Repo Mixer Tools -->
<svg fill="#ffffff" height="800px" width="800px" version="1.1" id="Layer_1" xmlns="http://www.w3.org/2000/svg" xmlns:xlink="http://www.w3.org/1999/xlink" viewBox="0 0 512.002 512.002" xml:space="preserve" stroke="#fff" transform="matrix(-1, 0, 0, 1, 0, 0)">

<g id="SVGRepo_bgCarrier" stroke-width="0"/>

<g id="SVGRepo_tracerCarrier" stroke-linecap="round" stroke-linejoin="round"/>

<g id="SVGRepo_iconCarrier"> <g> <g> <path d="M401.081,277.326c-23.524,0-42.662,19.138-42.662,42.662c0,23.524,19.138,42.662,42.662,42.662 c23.524,0,42.662-19.138,42.662-42.662C443.743,296.464,424.605,277.326,401.081,277.326z M401.081,345.585 c-14.112,0-25.597-11.485-25.597-25.597c0-14.112,11.485-25.597,25.597-25.597c14.112,0,25.597,11.485,25.597,25.597 C426.678,334.101,415.202,345.585,401.081,345.585z"/> </g> </g> <g> <g> <path d="M128.047,277.326c-23.524,0-42.662,19.138-42.662,42.662c0,23.524,19.138,42.662,42.662,42.662 s42.662-19.138,42.662-42.662C170.708,296.464,151.57,277.326,128.047,277.326z M128.047,345.585 c-14.112,0-25.597-11.485-25.597-25.597c0-14.112,11.485-25.597,25.597-25.597s25.597,11.485,25.597,25.597 C153.644,334.101,142.168,345.585,128.047,345.585z"/> </g> </g> <g> <g> <path d="M503.47,268.794v-42.662c0-3.046-1.63-5.87-4.266-7.389c-35.29-20.35-77.917-26.689-123.454-18.404l-66.45-16.612 c-4.36-1.067-8.754,1.357-10.162,5.58l-7.056,21.16c-29.326,6.937-56.552,5.316-73.941,2.841l34.095-22.73 c2.133-1.416,3.507-3.72,3.754-6.254c0.247-2.543-0.648-5.068-2.457-6.877l-25.597-25.597c-2.867-2.875-7.38-3.319-10.768-1.067 l-74.479,49.658c-78.881-2.782-116.85,33.054-132.755,55.23c-0.93,1.459-22.44,35.93,0.887,61.527 c1.229,1.34,2.85,2.261,4.633,2.619l42.662,8.532c0.563,0.111,1.118,0.171,1.672,0.171c1.954,0,3.874-0.674,5.41-1.937 c1.979-1.621,3.123-4.036,3.123-6.595c0-32.935,26.792-59.726,59.726-59.726s59.726,26.792,59.726,59.726 c0,4.71,3.822,8.532,8.532,8.532h136.517c4.71,0,8.532-3.822,8.532-8.532c0-32.935,26.792-59.726,59.726-59.726 c32.935,0,59.726,26.792,59.726,59.726c0,4.71,3.823,8.532,8.532,8.532h34.129c4.71,0,8.532-3.822,8.532-8.532v-42.662 C512.002,272.617,508.188,268.794,503.47,268.794z M494.954,311.456h-0.017h-17.534c-4.258-38.344-36.86-68.259-76.322-68.259 c-39.462,0-72.064,29.914-76.322,68.259H204.368c-4.258-38.344-36.86-68.259-76.322-68.259c-38.865,0-71.074,29.01-76.108,66.518 l-30.162-6.032c-11.561-15.845,2.304-38.447,2.287-38.447c1.126-1.578,2.449-3.259,3.865-4.974h14.804 c4.71,0,8.532-3.823,8.532-8.532c0-3.831-2.577-6.954-6.049-8.029c19.556-14.923,50.827-28.396,99.513-26.109 c1.843,0.034,3.618-0.418,5.128-1.425l70.972-47.312l13.293,13.293l-42.534,28.353c-2.747,1.834-4.198,5.094-3.712,8.362 c0.495,3.268,2.824,5.964,5.99,6.911c2.048,0.606,50.955,14.915,107.021,0.077c2.781-0.734,5-2.824,5.913-5.546l6.032-18.106 l60.597,15.145c1.203,0.316,2.457,0.341,3.669,0.102c28.353-5.41,69.905-7.253,109.325,13.703v12.048h-8.532 c-4.71,0-8.532,3.823-8.532,8.532s3.823,8.532,8.532,8.532h8.532v17.065c0,4.71,3.823,8.532,8.532,8.532V311.456z"/> </g> </g> </g>

</svg>